<svg xmlns="http://www.w3.org/2000/svg" xmlns:xlink="http://www.w3.org/1999/xlink" contentStyleType="text/css" height="701px" preserveAspectRatio="none" style="width:1215px;height:701px;background:#FFFFFF;" version="1.1" viewBox="0 0 1215 701" width="1215px" zoomAndPan="magnify"><defs/><g><!--cluster ecb1da74e8ff8fdd2911197ecf8badc0--><g id="cluster_ecb1da74e8ff8fdd2911197ecf8badc0"><polygon fill="none" points="16,16,26,6,574,6,574,582.97,564,592.97,16,592.97,16,16" style="stroke:#181818;stroke-width:1.0;"/><line style="stroke:#181818;stroke-width:1.0;" x1="564" x2="574" y1="16" y2="6"/><line style="stroke:#181818;stroke-width:1.0;" x1="16" x2="564" y1="16" y2="16"/><line style="stroke:#181818;stroke-width:1.0;" x1="564" x2="564" y1="16" y2="592.97"/><text fill="#000000" font-family="sans-serif" font-size="14" font-weight="bold" lengthAdjust="spacing" textLength="40" x="271" y="31.9951">Tram</text></g><!--cluster ee434023cf89d7dfb21f63d64f0f9d74--><g id="cluster_ee434023cf89d7dfb21f63d64f0f9d74"><polygon fill="none" points="660,56.75,670,46.75,1198,46.75,1198,582.97,1188,592.97,660,592.97,660,56.75" style="stroke:#181818;stroke-width:1.0;"/><line style="stroke:#181818;stroke-width:1.0;" x1="1188" x2="1198" y1="56.75" y2="46.75"/><line style="stroke:#181818;stroke-width:1.0;" x1="660" x2="1188" y1="56.75" y2="56.75"/><line style="stroke:#181818;stroke-width:1.0;" x1="1188" x2="1188" y1="56.75" y2="592.97"/><text fill="#000000" font-family="sans-serif" font-size="14" font-weight="bold" lengthAdjust="spacing" textLength="44" x="903" y="72.7451">Nginx</text></g><!--entity 955282bf92a1e53f1cad50afd9a23a82--><g id="elem_955282bf92a1e53f1cad50afd9a23a82"><rect fill="#F1F1F1" height="176.6719" rx="2.5" ry="2.5" style="stroke:#181818;stroke-width:0.5;" width="525" x="32.5" y="46"/><rect fill="#F1F1F1" height="10" style="stroke:#181818;stroke-width:0.5;" width="15" x="537.5" y="51"/><rect fill="#F1F1F1" height="2" style="stroke:#181818;stroke-width:0.5;" width="4" x="535.5" y="53"/><rect fill="#F1F1F1" height="2" style="stroke:#181818;stroke-width:0.5;" width="4" x="535.5" y="57"/><text fill="#000000" font-family="sans-serif" font-size="14" font-weight="bold" lengthAdjust="spacing" textLength="36" x="47.5" y="78.9951">tram</text><text fill="#000000" font-family="sans-serif" font-size="14" lengthAdjust="spacing" textLength="4" x="47.5" y="95.292">&#160;</text><text fill="#000000" font-family="sans-serif" font-size="14" lengthAdjust="spacing" textLength="424" x="47.5" y="111.5889">image: ghcr.io/center-for-threat-informed-defense/tram:latest</text><text fill="#000000" font-family="sans-serif" font-size="14" lengthAdjust="spacing" textLength="306" x="47.5" y="127.8857">environment: DATA_DIRECTORY=/tram/data</text><text fill="#000000" font-family="sans-serif" font-size="14" lengthAdjust="spacing" textLength="435" x="47.5" y="144.1826">environment: ALLOWED_HOSTS=["example_host1", "localhost"]</text><text fill="#000000" font-family="sans-serif" font-size="14" lengthAdjust="spacing" textLength="459" x="47.5" y="160.4795">environment: DJANGO_SUPERUSER_USERNAME=djangoSuperuser</text><text fill="#000000" font-family="sans-serif" font-size="14" lengthAdjust="spacing" textLength="485" x="47.5" y="176.7764">environment: DJANGO_SUPERUSER_PASSWORD=LEGITPassword1234</text><text fill="#000000" font-family="sans-serif" font-size="14" lengthAdjust="spacing" textLength="435" x="47.5" y="193.0732">environment: DJANGO_SUPERUSER_EMAIL=test@example.com</text><text fill="#000000" font-family="sans-serif" font-size="14" lengthAdjust="spacing" textLength="4" x="47.5" y="209.3701">&#160;</text></g><!--entity 17d0de115e1c22714dd336c1009d7d2b--><g id="elem_17d0de115e1c22714dd336c1009d7d2b"><rect fill="#F1F1F1" height="39.2969" rx="2.5" ry="2.5" style="stroke:#181818;stroke-width:0.5;" width="101" x="225.5" y="537.68"/><polygon fill="#F1F1F1" points="309.5,542.68,309.5,556.68,321.5,556.68,321.5,548.68,315.5,542.68,309.5,542.68" style="stroke:#181818;stroke-width:0.5;"/><line style="stroke:#181818;stroke-width:0.5;" x1="315.5" x2="315.5" y1="542.68" y2="548.68"/><line style="stroke:#181818;stroke-width:0.5;" x1="321.5" x2="315.5" y1="548.68" y2="548.68"/><text fill="#000000" font-family="sans-serif" font-size="14" lengthAdjust="spacing" textLength="71" x="235.5" y="563.6751">/tram/data</text></g><!--entity 93a5a1753e142f1b02508cc7d139643c--><g id="elem_93a5a1753e142f1b02508cc7d139643c"><rect fill="#F1F1F1" height="39.2969" rx="2.5" ry="2.5" style="stroke:#181818;stroke-width:0.5;" width="197" x="361.5" y="537.68"/><polygon fill="#F1F1F1" points="541.5,542.68,541.5,556.68,553.5,556.68,553.5,548.68,547.5,542.68,541.5,542.68" style="stroke:#181818;stroke-width:0.5;"/><line style="stroke:#181818;stroke-width:0.5;" x1="547.5" x2="547.5" y1="542.68" y2="548.68"/><line style="stroke:#181818;stroke-width:0.5;" x1="553.5" x2="547.5" y1="548.68" y2="548.68"/><text fill="#000000" font-family="sans-serif" font-size="14" lengthAdjust="spacing" textLength="167" x="371.5" y="563.6751">/tram/src/tram/staticfiles</text></g><!--entity af7a7f0b3b2e57bd500b4dc604f1838f--><g id="elem_af7a7f0b3b2e57bd500b4dc604f1838f"><rect fill="#F1F1F1" height="95.1875" rx="2.5" ry="2.5" style="stroke:#181818;stroke-width:0.5;" width="506" x="676" y="86.75"/><rect fill="#F1F1F1" height="10" style="stroke:#181818;stroke-width:0.5;" width="15" x="1162" y="91.75"/><rect fill="#F1F1F1" height="2" style="stroke:#181818;stroke-width:0.5;" width="4" x="1160" y="93.75"/><rect fill="#F1F1F1" height="2" style="stroke:#181818;stroke-width:0.5;" width="4" x="1160" y="97.75"/><text fill="#000000" font-family="sans-serif" font-size="14" font-weight="bold" lengthAdjust="spacing" textLength="43" x="691" y="119.7451">nginx</text><text fill="#000000" font-family="sans-serif" font-size="14" lengthAdjust="spacing" textLength="4" x="691" y="136.042">&#160;</text><text fill="#000000" font-family="sans-serif" font-size="14" lengthAdjust="spacing" textLength="466" x="691" y="152.3389">image: ghcr.io/center-for-threat-informed-defense/tram-nginx:latest</text><text fill="#000000" font-family="sans-serif" font-size="14" lengthAdjust="spacing" textLength="4" x="691" y="168.6357">&#160;</text></g><!--entity 97b04832e42a04c7beb04c21e560b3fb--><g id="elem_97b04832e42a04c7beb04c21e560b3fb"><ellipse cx="738" cy="312.68" fill="#F1F1F1" rx="8" ry="8" style="stroke:#181818;stroke-width:0.5;"/><text fill="#000000" font-family="sans-serif" font-size="14" lengthAdjust="spacing" textLength="18" x="729" y="342.6751">80</text></g><!--entity ab724546ab65fd2f86068c70642f3324--><g id="elem_ab724546ab65fd2f86068c70642f3324"><rect fill="#F1F1F1" height="39.2969" rx="2.5" ry="2.5" style="stroke:#181818;stroke-width:0.5;" width="101" x="685.5" y="537.68"/><polygon fill="#F1F1F1" points="769.5,542.68,769.5,556.68,781.5,556.68,781.5,548.68,775.5,542.68,769.5,542.68" style="stroke:#181818;stroke-width:0.5;"/><line style="stroke:#181818;stroke-width:0.5;" x1="775.5" x2="775.5" y1="542.68" y2="548.68"/><line style="stroke:#181818;stroke-width:0.5;" x1="781.5" x2="775.5" y1="548.68" y2="548.68"/><text fill="#000000" font-family="sans-serif" font-size="14" lengthAdjust="spacing" textLength="71" x="695.5" y="563.6751">/tram/data</text></g><!--entity 661c4a8dcc7582f583cac82dc94027da--><g id="elem_661c4a8dcc7582f583cac82dc94027da"><rect fill="#F1F1F1" height="39.2969" rx="2.5" ry="2.5" style="stroke:#181818;stroke-width:0.5;" width="197" x="825.5" y="537.68"/><polygon fill="#F1F1F1" points="1005.5,542.68,1005.5,556.68,1017.5,556.68,1017.5,548.68,1011.5,542.68,1005.5,542.68" style="stroke:#181818;stroke-width:0.5;"/><line style="stroke:#181818;stroke-width:0.5;" x1="1011.5" x2="1011.5" y1="542.68" y2="548.68"/><line style="stroke:#181818;stroke-width:0.5;" x1="1017.5" x2="1011.5" y1="548.68" y2="548.68"/><text fill="#000000" font-family="sans-serif" font-size="14" lengthAdjust="spacing" textLength="167" x="835.5" y="563.6751">/tram/src/tram/staticfiles</text></g><!--entity da9ed63ac39a80ccb1c52acee6c8b7aa--><g id="elem_da9ed63ac39a80ccb1c52acee6c8b7aa"><rect fill="#F1F1F1" height="39.2969" rx="2.5" ry="2.5" style="stroke:#181818;stroke-width:0.5;" width="61" x="409.5" y="655.97"/><polygon fill="#F1F1F1" points="453.5,660.97,453.5,674.97,465.5,674.97,465.5,666.97,459.5,660.97,453.5,660.97" style="stroke:#181818;stroke-width:0.5;"/><line style="stroke:#181818;stroke-width:0.5;" x1="459.5" x2="459.5" y1="660.97" y2="666.97"/><line style="stroke:#181818;stroke-width:0.5;" x1="465.5" x2="459.5" y1="666.97" y2="666.97"/><text fill="#000000" font-family="sans-serif" font-size="14" lengthAdjust="spacing" textLength="31" x="419.5" y="681.9651">tram</text></g><!--entity e5bf02e7fdc80796d3e4974ac911ddbd--><g id="elem_e5bf02e7fdc80796d3e4974ac911ddbd"><rect fill="#F1F1F1" height="39.2969" rx="2.5" ry="2.5" style="stroke:#181818;stroke-width:0.5;" width="105" x="654.5" y="655.97"/><polygon fill="#F1F1F1" points="742.5,660.97,742.5,674.97,754.5,674.97,754.5,666.97,748.5,660.97,742.5,660.97" style="stroke:#181818;stroke-width:0.5;"/><line style="stroke:#181818;stroke-width:0.5;" x1="748.5" x2="748.5" y1="660.97" y2="666.97"/><line style="stroke:#181818;stroke-width:0.5;" x1="754.5" x2="748.5" y1="666.97" y2="666.97"/><text fill="#000000" font-family="sans-serif" font-size="14" lengthAdjust="spacing" textLength="75" x="664.5" y="681.9651">tram_static</text></g><!--entity 1624c420083928ef3e240dd88f2e52f0--><g id="elem_1624c420083928ef3e240dd88f2e52f0"><ellipse cx="617" cy="447.68" fill="#F1F1F1" rx="8" ry="8" style="stroke:#181818;stroke-width:0.5;"/><text fill="#000000" font-family="sans-serif" font-size="14" lengthAdjust="spacing" textLength="36" x="599" y="477.6751">8000</text></g><!--link 17d0de115e1c22714dd336c1009d7d2b to da9ed63ac39a80ccb1c52acee6c8b7aa--><g id="link_17d0de115e1c22714dd336c1009d7d2b_da9ed63ac39a80ccb1c52acee6c8b7aa"><path codeLine="31" d="M302.71,577.27 C333.12,598.83 382.51,633.85 413.02,655.49 " fill="none" id="17d0de115e1c22714dd336c1009d7d2b-da9ed63ac39a80ccb1c52acee6c8b7aa" style="stroke:#181818;stroke-width:1.0;"/><text fill="#000000" font-family="sans-serif" font-size="13" lengthAdjust="spacing" textLength="14" x="368" y="622.0369">rw</text></g><!--link 955282bf92a1e53f1cad50afd9a23a82 to 17d0de115e1c22714dd336c1009d7d2b--><g id="link_955282bf92a1e53f1cad50afd9a23a82_17d0de115e1c22714dd336c1009d7d2b"><path codeLine="32" d="M291.04,223.08 C286.48,324.05 279.58,476.9461 277.13,531.3361 " fill="none" id="955282bf92a1e53f1cad50afd9a23a82-to-17d0de115e1c22714dd336c1009d7d2b" style="stroke:#181818;stroke-width:1.0;stroke-dasharray:7.0,7.0;"/><polygon fill="#181818" points="276.86,537.33,281.2609,528.5191,277.085,532.3351,273.269,528.1591,276.86,537.33" style="stroke:#181818;stroke-width:1.0;"/><text fill="#000000" font-family="sans-serif" font-size="13" lengthAdjust="spacing" textLength="23" x="285" y="384.7469">use</text></g><!--link 93a5a1753e142f1b02508cc7d139643c to e5bf02e7fdc80796d3e4974ac911ddbd--><g id="link_93a5a1753e142f1b02508cc7d139643c_e5bf02e7fdc80796d3e4974ac911ddbd"><path codeLine="33" d="M500.51,577.4 C546.36,598.99 620.61,633.95 666.47,655.54 " fill="none" id="93a5a1753e142f1b02508cc7d139643c-e5bf02e7fdc80796d3e4974ac911ddbd" style="stroke:#181818;stroke-width:1.0;"/><text fill="#000000" font-family="sans-serif" font-size="13" lengthAdjust="spacing" textLength="14" x="599" y="622.0369">rw</text></g><!--link 955282bf92a1e53f1cad50afd9a23a82 to 93a5a1753e142f1b02508cc7d139643c--><g id="link_955282bf92a1e53f1cad50afd9a23a82_93a5a1753e142f1b02508cc7d139643c"><path codeLine="34" d="M329.39,223.08 C368.96,324.05 429.0512,477.3535 450.3612,531.7435 " fill="none" id="955282bf92a1e53f1cad50afd9a23a82-to-93a5a1753e142f1b02508cc7d139643c" style="stroke:#181818;stroke-width:1.0;stroke-dasharray:7.0,7.0;"/><polygon fill="#181818" points="452.55,537.33,452.9911,527.491,450.726,532.6746,445.5425,530.4094,452.55,537.33" style="stroke:#181818;stroke-width:1.0;"/><text fill="#000000" font-family="sans-serif" font-size="13" lengthAdjust="spacing" textLength="23" x="395" y="384.7469">use</text></g><!--link af7a7f0b3b2e57bd500b4dc604f1838f to 97b04832e42a04c7beb04c21e560b3fb--><g id="link_af7a7f0b3b2e57bd500b4dc604f1838f_97b04832e42a04c7beb04c21e560b3fb"><path codeLine="35" d="M878.07,182.36 C832.32,224.6 768.97,283.08 746.4,303.92 " fill="none" id="af7a7f0b3b2e57bd500b4dc604f1838f-97b04832e42a04c7beb04c21e560b3fb" style="stroke:#181818;stroke-width:1.0;"/></g><!--link 97b04832e42a04c7beb04c21e560b3fb to 1624c420083928ef3e240dd88f2e52f0--><g id="link_97b04832e42a04c7beb04c21e560b3fb_1624c420083928ef3e240dd88f2e52f0"><path codeLine="36" d="M730.79,321.6 C709.22,345.31 645.34,415.53 624.02,438.96 " fill="none" id="97b04832e42a04c7beb04c21e560b3fb-1624c420083928ef3e240dd88f2e52f0" style="stroke:#181818;stroke-width:1.0;"/></g><!--link ab724546ab65fd2f86068c70642f3324 to da9ed63ac39a80ccb1c52acee6c8b7aa--><g id="link_ab724546ab65fd2f86068c70642f3324_da9ed63ac39a80ccb1c52acee6c8b7aa"><path codeLine="37" d="M709.01,577.23 C686.59,592.21 653.39,612.76 622,625.97 C570.9,647.48 507.68,661.83 470.79,669.08 " fill="none" id="ab724546ab65fd2f86068c70642f3324-da9ed63ac39a80ccb1c52acee6c8b7aa" style="stroke:#181818;stroke-width:1.0;"/><text fill="#000000" font-family="sans-serif" font-size="13" lengthAdjust="spacing" textLength="13" x="655" y="622.0369">ro</text></g><!--link af7a7f0b3b2e57bd500b4dc604f1838f to ab724546ab65fd2f86068c70642f3324--><g id="link_af7a7f0b3b2e57bd500b4dc604f1838f_ab724546ab65fd2f86068c70642f3324"><path codeLine="38" d="M907.42,182.41 C865.22,274.45 775.89,469.3056 747.23,531.8356 " fill="none" id="af7a7f0b3b2e57bd500b4dc604f1838f-to-ab724546ab65fd2f86068c70642f3324" style="stroke:#181818;stroke-width:1.0;stroke-dasharray:7.0,7.0;"/><polygon fill="#181818" points="744.73,537.29,752.1162,530.7751,746.8133,532.7447,744.8437,527.4418,744.73,537.29" style="stroke:#181818;stroke-width:1.0;"/><text fill="#000000" font-family="sans-serif" font-size="13" lengthAdjust="spacing" textLength="23" x="821" y="384.7469">use</text></g><!--link 661c4a8dcc7582f583cac82dc94027da to e5bf02e7fdc80796d3e4974ac911ddbd--><g id="link_661c4a8dcc7582f583cac82dc94027da_e5bf02e7fdc80796d3e4974ac911ddbd"><path codeLine="39" d="M888.65,577.27 C848.42,598.83 783.07,633.85 742.69,655.49 " fill="none" id="661c4a8dcc7582f583cac82dc94027da-e5bf02e7fdc80796d3e4974ac911ddbd" style="stroke:#181818;stroke-width:1.0;"/><text fill="#000000" font-family="sans-serif" font-size="13" lengthAdjust="spacing" textLength="13" x="829" y="622.0369">ro</text></g><!--link af7a7f0b3b2e57bd500b4dc604f1838f to 661c4a8dcc7582f583cac82dc94027da--><g id="link_af7a7f0b3b2e57bd500b4dc604f1838f_661c4a8dcc7582f583cac82dc94027da"><path codeLine="40" d="M928.44,182.41 C927.35,274.45 925.041,468.7604 924.301,531.2904 " fill="none" id="af7a7f0b3b2e57bd500b4dc604f1838f-to-661c4a8dcc7582f583cac82dc94027da" style="stroke:#181818;stroke-width:1.0;stroke-dasharray:7.0,7.0;"/><polygon fill="#181818" points="924.23,537.29,928.3362,528.338,924.2892,532.2904,920.3368,528.2433,924.23,537.29" style="stroke:#181818;stroke-width:1.0;"/><text fill="#000000" font-family="sans-serif" font-size="13" lengthAdjust="spacing" textLength="23" x="927" y="384.7469">use</text></g><!--SRC=[dLHTQzj857tNhn1wQaFjp9TcHW4lDOrfKz8us2vbASNScNl7KR6b8AcRmBB_VSSVeRHbcNHVX4RCEVVSSyyLRBVjmwv-h9jDrhH8UR7gO5VaqEVa7KSmYcm8DY2AYdDU6VB1Ea3Fyh-ptBUx-xQXPiYhiXHMk509u5JAm3rWoI1W1KA25VddxEniYDndPrbMxs135_dcpdVZkZttaO2wKMYxqN3N4GoZkec77U48AL3Jq_aUUR65WVeXe-QlkckRNKHTv9VJrNHzURMOlLdD5tzE3XVF4GRuyThq-dh-QNQvVZTVhfQJpmKzmkv-I-kxjXzuyIeljgs7xVvKVFcfmFlfpTlvUldnThRuk9mjrll7pVJ3R89VeTcqos_tr7thgKl0RgVBvQVvud9oFNjxjRg5ldzeE-H2gWHmzc5wTJtPT_xwf7eSRS-oBnbqGnt03tdnlUt3wBX1XiHvITmBORX2b59xpbY51eNx1Tbt_lGom53xK6-fFp1L4ahWffJ4bGZSCL4owxr1BYkjfC_-ESNcPbCtZyVSa9AA2HbpigyMdE11IzGgi10_g1zp0y602Sn99wWqBcQ6EOLUCnMubJOSSjFioVz_S4O7_5Dyed4lNkQ5PSS6ZMFAIa5A05FUE8fdBsA6THGLt7-R3Cu8LIeDJfS1HR2QQUiDqz4eAOLwlibQSw_0OlIrj2AKLdhmLg2leey68PhydMjusa-4Yb1ByB82otpSLbyAy4JQMsS0ViAiZrMF8ofTO89CG6-PgJHAKfLHuEEA8pey6SIE5d4jb5U2CIihOIb84eeXMXlYo4HWMIfk-GX7IRdvHLvq3qMM_96CnpWU_v7C-9ulhcKaJ4Jue2xboE-gInPzKfVC_rvTCgIf2mUMv1nJYNx-7DjdD7PoAbdqoQdKbZn_Zh-XBbdqfEvV]--></g></svg>